<svg width="125" height="32" viewBox="0 0 125 32" version="1.1" xmlns="http://www.w3.org/2000/svg" xmlns:xlink="http://www.w3.org/1999/xlink" xmlns:figma="http://www.figma.com/figma/ns">
<title>THE ART MUSEUM</title>
<desc>Created using Figma</desc>
<g id="Canvas" transform="translate(51 55)" figma:type="canvas">
<g id="THE ART MUSEUM" style="mix-blend-mode:normal;" figma:type="text">
<use xlink:href="#path0_fill" transform="translate(-54 -64)" style="mix-blend-mode:normal;"/>
</g>
</g>
<defs>
<path id="path0_fill" d="M 3.977 39.688L 3.977 11.029L 8.815 11.029L 8.815 23.452L 23.042 23.452L 23.042 11.029L 27.88 11.029L 27.88 39.688L 23.042 39.688L 23.042 27.962L 8.815 27.962L 8.815 39.688L 3.977 39.688ZM 44.0891 40.016C 41.3284 40.016 38.9231 38.9773 36.8731 36.9C 34.8231 34.8227 33.7981 32.0893 33.7981 28.7C 33.7981 25.3107 34.8504 22.6047 36.9551 20.582C 39.0598 18.5593 41.5471 17.548 44.4171 17.548C 47.2871 17.548 49.6514 18.9147 51.5101 21.648L 51.5101 17.876L 56.1021 17.876L 56.1021 39.688L 51.5101 39.688L 51.5101 36.121C 50.6354 37.3783 49.5148 38.3487 48.1481 39.032C 46.8088 39.688 45.4558 40.016 44.0891 40.016ZM 38.3901 28.905C 38.3901 30.9823 39.0598 32.677 40.3991 33.989C 41.7384 35.301 43.3101 35.957 45.1141 35.957C 46.9181 35.957 48.4488 35.301 49.7061 33.989C 50.9634 32.6497 51.5921 30.9413 51.5921 28.864C 51.5921 26.7867 50.9634 25.051 49.7061 23.657C 48.4488 22.263 46.9044 21.566 45.0731 21.566C 43.2418 21.566 41.6701 22.263 40.3581 23.657C 39.0461 25.051 38.3901 26.8003 38.3901 28.905ZM 74.424 17.548C 77.3486 17.548 79.8496 18.5593 81.927 20.582C 84.0043 22.6047 85.043 25.297 85.043 28.659C 85.043 32.021 84.0043 34.7543 81.927 36.859C 79.877 38.9637 77.4716 40.016 74.711 40.016C 71.9776 40.016 69.5176 38.8133 67.331 36.408L 67.331 39.688L 62.739 39.688L 62.739 9.266L 67.331 9.266L 67.331 21.689C 69.135 18.9283 71.4993 17.548 74.424 17.548ZM 67.249 28.823C 67.249 30.9003 67.8776 32.6087 69.135 33.948C 70.3923 35.26 71.923 35.916 73.727 35.916C 75.531 35.916 77.1026 35.26 78.442 33.948C 79.7813 32.636 80.451 30.9413 80.451 28.864C 80.451 26.7593 79.795 25.0237 78.483 23.657C 77.171 22.263 75.5993 21.566 73.768 21.566C 71.9366 21.566 70.3923 22.263 69.135 23.657C 67.8776 25.0237 67.249 26.7457 67.249 28.823ZM 100.208 17.548C 103.187 17.548 105.661 18.3817 107.629 20.049C 109.597 21.689 110.595 23.8347 110.622 26.486L 110.663 26.568L 94.7548 33.251C 96.1762 35.0003 98.1032 35.875 100.536 35.875C 102.996 35.875 105.019 34.9183 106.604 33.005L 109.31 35.998C 106.713 38.6767 103.652 40.016 100.126 40.016C 97.0372 40.016 94.3858 38.991 92.1718 36.941C 89.9578 34.891 88.8508 32.185 88.8508 28.823C 88.8508 26.4997 89.4248 24.4633 90.5728 22.714C 91.7208 20.9373 93.1422 19.639 94.8368 18.819C 96.5315 17.9717 98.3218 17.548 100.208 17.548ZM 93.2788 28.905C 93.2788 29.2603 93.2925 29.52 93.3198 29.684L 105.415 24.477C 104.486 22.673 102.832 21.771 100.454 21.771C 98.6498 21.771 96.9962 22.3997 95.4928 23.657C 94.0168 24.9143 93.2788 26.6637 93.2788 28.905ZM 119.777 21.566L 119.777 32.636C 119.777 33.6747 120.051 34.5083 120.597 35.137C 121.144 35.7383 121.909 36.039 122.893 36.039C 123.877 36.039 124.82 35.5607 125.722 34.604L 127.608 37.843C 125.996 39.2917 124.205 40.016 122.237 40.016C 120.297 40.016 118.629 39.3463 117.235 38.007C 115.869 36.6403 115.185 34.809 115.185 32.513L 115.185 11.029L 119.777 11.029L 119.777 17.876L 125.517 17.876L 125.517 21.566L 119.777 21.566Z"/>
</defs>
</svg>
